<svg width="246" height="200" viewBox="0 0 246 200" fill="none" xmlns="http://www.w3.org/2000/svg">
<path d="M22.9334 37.2796L23.8545 0H0L22.9334 37.2796Z" fill="#111827"/>
<path d="M30.1809 0L79.0901 41.3825L52.6678 0H30.1809Z" fill="#111827"/>
<path d="M30.1809 48.8069L60.948 99.1116L56.8079 64.5021L30.1809 48.8069Z" fill="#111827"/>
<path d="M38.4612 48.6673L74.7081 47.0392L59.7665 60.5015L38.4612 48.6673Z" fill="#111827"/>
<path d="M62.7158 65.9813L66.2698 106.145L103.987 88.6077L62.7158 65.9813Z" fill="#111827"/>
<path d="M69.5259 111.541L109.764 143.49L118.64 111.243L69.5259 111.541Z" fill="#111827"/>
<path d="M75.5547 122.185L118.342 191.394L109.029 149.854L75.5547 122.185Z" fill="#111827"/>
<path d="M113.467 148.97L123.673 200L155.622 147.193L113.467 148.97Z" fill="#111827"/>
<path d="M128.111 109.466L156.701 100.005V135.656L128.111 109.466Z" fill="#111827"/>
<path d="M162.73 96.5996L162.134 136.987L192.743 86.6726L162.73 96.5996Z" fill="#111827"/>
<path d="M177.736 60.9481L164.944 90.6825L197.041 79.7321L177.736 60.9481Z" fill="#111827"/>
<path d="M180.034 54.2867L200.084 74.6337L220.347 41.3826L180.034 54.2867Z" fill="#111827"/>
<path d="M198.837 0L225.948 32.1998L245.569 0H198.837Z" fill="#111827"/>
<path d="M180.797 19.2864L192.901 0L220.273 32.6929L180.797 19.2864Z" fill="#111827"/>
<path d="M174.964 28.5807V54.2866L136.735 89.5008L174.964 28.5807Z" fill="#111827"/>
<path d="M28.7017 4.7356L27.8086 44.3783L73.5266 42.8991L28.7017 4.7356Z" fill="#111827"/>
<path d="M82.7465 47.1135L103.987 80.3833L67.4607 61.2457L82.7465 47.1135Z" fill="#111827"/>
<path d="M81.658 106.145L111.597 92.3013L120.863 106.219L81.658 106.145Z" fill="#111827"/>
<path d="M123.394 112.267L158.58 142.011L115.095 143.508L123.394 112.267Z" fill="#111827"/>
<path d="M127.664 104.591L172.489 62.1296L157.845 94.5249L127.664 104.591Z" fill="#111827"/>
<path d="M178.853 23.3707L179.513 49.7093L218.644 37.3913L178.853 23.3707Z" fill="#111827"/>
</svg>
