<svg width="359" height="329" viewBox="0 0 359 329" fill="none" xmlns="http://www.w3.org/2000/svg">
<g clip-path="url(#clip0_37_1636)">
<path d="M180.33 230.634C167.97 230.634 156.87 228.134 147.02 223.124C137.17 218.114 129.4 210.854 123.73 201.334C118.05 191.814 115.21 180.384 115.21 167.024V163.024C115.21 149.664 118.05 138.234 123.73 128.714C129.4 119.194 137.17 111.934 147.02 106.924C156.87 101.914 167.97 99.4143 180.33 99.4143C192.69 99.4143 203.78 101.914 213.63 106.924C223.48 111.934 231.24 119.194 236.92 128.714C242.59 138.234 245.44 149.664 245.44 163.024V167.024C245.44 180.384 242.6 191.814 236.92 201.334C231.24 210.854 223.48 218.114 213.63 223.124C203.78 228.134 192.68 230.634 180.33 230.634ZM180.33 202.584C190.01 202.584 198.02 199.454 204.37 193.194C210.72 186.934 213.89 177.964 213.89 166.274V163.774C213.89 152.094 210.76 143.114 204.5 136.854C198.24 130.594 190.18 127.464 180.34 127.464C170.5 127.464 162.64 130.594 156.3 136.854C149.95 143.114 146.78 152.094 146.78 163.774V166.274C146.78 177.964 149.95 186.934 156.3 193.194C162.64 199.454 170.65 202.584 180.34 202.584H180.33Z" fill="#4124FA"/>
<path d="M258.368 249.445L238.296 266.3L290.776 328.798L310.848 311.944L258.368 249.445Z" fill="#FB1894"/>
<path d="M195.687 276.654L169.481 277.13L170.271 320.633L196.477 320.157L195.687 276.654Z" fill="#FB1894"/>
<path d="M118.556 250.385L0.455002 300.103L10.6244 324.26L128.726 274.541L118.556 250.385Z" fill="#FB1894"/>
<path d="M68.382 0.728539L48.3103 17.583L100.79 80.0816L120.862 63.2271L68.382 0.728539Z" fill="#FB1894"/>
<path d="M188.857 8.93126L162.651 9.40698L163.441 52.9098L189.647 52.4341L188.857 8.93126Z" fill="#FB1894"/>
<path d="M348.55 5.15325L230.448 54.8713L240.618 79.028L358.719 29.31L348.55 5.15325Z" fill="#FB1894"/>
</g>
<defs>
<clipPath id="clip0_37_1636">
<rect width="359" height="329" fill="white"/>
</clipPath>
</defs>
</svg>
