<svg width="359" height="330" viewBox="0 0 359 330" fill="none" xmlns="http://www.w3.org/2000/svg">
<g clip-path="url(#clip0_37_1618)">
<path d="M180 230.871C167.64 230.871 156.54 228.371 146.69 223.361C136.84 218.351 129.07 211.091 123.4 201.571C117.72 192.051 114.88 180.621 114.88 167.261V163.261C114.88 149.901 117.72 138.471 123.4 128.951C129.07 119.431 136.84 112.171 146.69 107.161C156.54 102.151 167.64 99.6509 180 99.6509C192.36 99.6509 203.45 102.151 213.3 107.161C223.15 112.171 230.91 119.431 236.59 128.951C242.26 138.471 245.11 149.901 245.11 163.261V167.261C245.11 180.621 242.27 192.051 236.59 201.571C230.91 211.091 223.15 218.351 213.3 223.361C203.45 228.371 192.35 230.871 180 230.871ZM180 202.821C189.68 202.821 197.69 199.691 204.04 193.431C210.39 187.171 213.56 178.201 213.56 166.511V164.011C213.56 152.331 210.43 143.351 204.17 137.091C197.91 130.831 189.85 127.701 180.01 127.701C170.17 127.701 162.31 130.831 155.97 137.091C149.62 143.351 146.45 152.331 146.45 164.011V166.511C146.45 178.201 149.62 187.171 155.97 193.431C162.31 199.691 170.32 202.821 180.01 202.821H180Z" fill="#BFB5FF"/>
<path d="M258.038 249.682L237.966 266.536L290.446 329.035L310.518 312.18L258.038 249.682Z" fill="#FF82C6"/>
<path d="M195.357 276.891L169.151 277.366L169.941 320.869L196.147 320.394L195.357 276.891Z" fill="#FF82C6"/>
<path d="M118.227 250.621L0.125 300.339L10.2944 324.496L128.396 274.778L118.227 250.621Z" fill="#FF82C6"/>
<path d="M68.052 0.965088L47.98 17.8196L100.46 80.3182L120.532 63.4637L68.052 0.965088Z" fill="#FF82C6"/>
<path d="M188.526 9.16785L162.321 9.64357L163.111 53.1464L189.316 52.6707L188.526 9.16785Z" fill="#FF82C6"/>
<path d="M348.22 5.38983L230.118 55.1079L240.288 79.2646L358.389 29.5465L348.22 5.38983Z" fill="#FF82C6"/>
</g>
<defs>
<clipPath id="clip0_37_1618">
<rect width="359" height="330" fill="white"/>
</clipPath>
</defs>
</svg>
