<?xml version="1.0" encoding="UTF-8"?>
<svg id="Layer_1" xmlns="http://www.w3.org/2000/svg" version="1.1" viewBox="0 0 558.8 333.8">
  <!-- Generator: Adobe Illustrator 29.7.1, SVG Export Plug-In . SVG Version: 2.1.1 Build 8)  -->
  <defs>
    <style>
      .st0 {
        fill: #8459e8;
      }

      .st1 {
        fill: #0e6dfb;
      }

      .st2 {
        opacity: .2;
      }

      .st3 {
        fill: #d600bd;
      }
    </style>
  </defs>
  <polygon class="st0" points="109.9 238.6 110.6 239 279.4 333.8 448.2 239 448.9 238.6 446.6 237.3 414.5 219.2 385.1 202.7 350.6 183.3 321.3 166.9 320.6 166.5 320.6 166.5 279.4 143.4 238.3 166.5 238.3 166.5 237.5 166.9 173.7 202.7 112.2 237.3 109.9 238.6"/>
  <polygon class="st3" points="109.9 166.9 173.7 202.7 174.5 203.2 279.4 262.1 384.4 203.2 385.1 202.7 414.9 186 448.9 166.9 414.4 147.5 385.1 131 384.4 130.6 279.4 71.7 174.5 130.6 173.7 131 109.9 166.9"/>
  <polygon class="st1" points="109.9 95.2 112.2 96.5 173.7 131 237.5 166.9 238.3 167.3 279.4 190.4 320.6 167.3 321.3 166.9 350.6 150.4 350.6 150.4 385.1 131 414.8 114.4 446.6 96.5 448.9 95.2 448.2 94.8 279.4 0 110.6 94.8 109.9 95.2"/>
  <polygon points="22.2 154.4 20.7 155.3 0 166.9 21.6 179 23.1 179.9 82.1 213 99.7 203.2 45.6 172.8 35.8 167.3 45.6 161.7 100.5 130.2 83 120.3 22.2 154.4"/>
  <polygon points="538.2 155.3 536.6 154.4 475.9 120.3 458.3 130.2 513.3 161.7 523.1 167.3 513.2 172.8 459.1 203.2 476.8 213 535.8 179.8 537.2 179 558.8 166.9 538.2 155.3"/>
  <polygon class="st2" points="408.3 216.6 396.8 223.1 395.9 223.6 279.4 289 162.6 223.4 162 223.1 150.5 216.6 174.4 203.2 174.5 203.2 279.4 262.1 384.4 203.2 384.4 203.2 408.3 216.6"/>
  <polygon class="st2" points="409.1 144.5 374.1 164.1 362.1 170.9 345.3 180.3 344.5 180.8 332.9 187.3 332.1 187.8 279.4 217.3 226.5 187.6 225.9 187.3 214.3 180.8 213.6 180.4 162.2 151.5 149.8 144.5 173.7 131 237.5 166.9 238.3 167.3 279.4 190.4 320.6 167.3 321.3 166.9 350.6 150.4 350.6 150.4 385.1 131 409.1 144.5"/>
</svg>