<svg width="1148" height="200" viewBox="0 0 1148 200" fill="none" xmlns="http://www.w3.org/2000/svg">
<g clip-path="url(#clip0_37_1572)">
<path d="M198.88 99.8936L99.6311 0.645142L0.382621 99.8936L99.6311 199.142L198.88 99.8936Z" fill="#535C6C"/>
<path d="M298.128 99.8936L198.879 0.645142L99.6307 99.8936L198.879 199.142L298.128 99.8936Z" fill="#1FBAD6"/>
</g>
<path d="M401.628 88.8986H417.463L444.715 47.2841H471.231L437.534 97.737L472.335 158.133H445.636L417.463 108.417H401.628V158.133H378.243V13.9558L401.628 12.6669V88.8986ZM533.088 160.159C514.429 160.159 500.803 155.248 492.21 145.428C483.74 135.485 479.505 120.57 479.505 100.683C479.505 83.0063 483.372 69.3803 491.106 59.8053C498.962 50.2303 510.931 45.4428 527.012 45.4428C533.764 45.4428 539.901 46.4862 545.425 48.5731C550.949 50.5372 555.676 53.6675 559.604 57.964C563.532 62.1377 566.539 67.4776 568.626 73.9837C570.713 80.367 571.757 87.9779 571.757 96.8164C571.757 98.535 571.695 100.438 571.572 102.525C571.572 104.489 571.45 106.33 571.204 108.049H503.811C504.056 113.818 504.854 118.728 506.205 122.779C507.678 126.708 509.703 129.899 512.281 132.354C514.859 134.809 518.112 136.589 522.04 137.694C525.969 138.799 530.572 139.351 535.85 139.351C541.374 139.351 546.53 138.86 551.318 137.878C556.228 136.896 561.015 135.362 565.68 133.275L568.442 152.609C563.777 154.942 558.438 156.783 552.423 158.133C546.53 159.483 540.085 160.159 533.088 160.159ZM550.213 92.213C549.967 82.3925 547.819 75.4567 543.768 71.4058C539.717 67.3548 534.193 65.3293 527.196 65.3293C519.094 65.3293 513.202 67.4776 509.519 71.7741C505.959 75.9478 503.872 82.7608 503.259 92.213H550.213ZM687.031 102.525C687.031 112.468 685.987 121.122 683.9 128.488C681.936 135.73 679.051 141.684 675.246 146.349C671.563 151.013 667.083 154.512 661.804 156.844C656.526 159.054 650.572 160.159 643.943 160.159C638.665 160.159 633.632 159.422 628.844 157.949C624.179 156.476 620.006 153.775 616.323 149.847L615.771 150.031L616.139 164.946V185.938H592.385V48.0207L608.958 46.9159L613.561 57.4116C617.489 53.6061 622.093 50.66 627.371 48.5731C632.772 46.4862 638.603 45.4428 644.864 45.4428C651.615 45.4428 657.63 46.4249 662.909 48.389C668.188 50.3531 672.607 53.6061 676.167 58.1481C679.727 62.5673 682.427 68.3983 684.269 75.6409C686.11 82.8835 687.031 91.8447 687.031 102.525ZM662.909 102.34C662.909 95.3433 662.418 89.5737 661.436 85.0317C660.454 80.367 658.919 76.6843 656.833 73.9837C654.868 71.283 652.352 69.3803 649.283 68.2755C646.337 67.1707 642.838 66.6183 638.787 66.6183C633.754 66.6183 629.335 67.6003 625.53 69.5644C621.724 71.4058 618.594 74.045 616.139 77.4822V128.856C618.103 132.047 620.865 134.748 624.425 136.958C627.985 139.045 632.527 140.088 638.051 140.088C641.734 140.088 645.109 139.597 648.178 138.615C651.247 137.51 653.825 135.546 655.912 132.723C658.122 129.899 659.84 126.094 661.068 121.306C662.295 116.396 662.909 110.074 662.909 102.34ZM710.771 158.133V13.9558L734.34 12.6669V158.133H710.771ZM811.628 160.159C792.969 160.159 779.343 155.248 770.75 145.428C762.28 135.485 758.045 120.57 758.045 100.683C758.045 83.0063 761.912 69.3803 769.645 59.8053C777.502 50.2303 789.47 45.4428 805.551 45.4428C812.303 45.4428 818.441 46.4862 823.965 48.5731C829.489 50.5372 834.215 53.6675 838.143 57.964C842.071 62.1377 845.079 67.4776 847.166 73.9837C849.253 80.367 850.296 87.9779 850.296 96.8164C850.296 98.535 850.235 100.438 850.112 102.525C850.112 104.489 849.989 106.33 849.744 108.049H782.35C782.596 113.818 783.394 118.728 784.744 122.779C786.217 126.708 788.243 129.899 790.821 132.354C793.399 134.809 796.652 136.589 800.58 137.694C804.508 138.799 809.111 139.351 814.39 139.351C819.914 139.351 825.07 138.86 829.857 137.878C834.767 136.896 839.555 135.362 844.22 133.275L846.982 152.609C842.317 154.942 836.977 156.783 830.962 158.133C825.07 159.483 818.625 160.159 811.628 160.159ZM828.752 92.213C828.507 82.3925 826.359 75.4567 822.308 71.4058C818.257 67.3548 812.733 65.3293 805.736 65.3293C797.634 65.3293 791.741 67.4776 788.059 71.7741C784.499 75.9478 782.412 82.7608 781.798 92.213H828.752ZM870.925 158.133V48.0207L889.707 46.9159L891.732 67.7231H892.285C895.722 60.4805 900.141 55.0178 905.542 51.3351C911.066 47.5297 917.266 45.6269 924.14 45.6269C928.682 45.6269 932.549 46.118 935.74 47.1L934.267 70.8534C932.549 70.2396 930.707 69.81 928.743 69.5644C926.779 69.1962 924.754 69.012 922.667 69.012C918.616 69.012 914.872 69.81 911.435 71.4058C907.997 72.8789 904.99 75.0271 902.412 77.8505C899.957 80.6739 897.993 84.1725 896.52 88.3462C895.047 92.5199 894.31 97.1846 894.31 102.34V158.133H870.925ZM960.702 146.349C960.702 150.645 959.536 154.021 957.204 156.476C954.994 158.931 951.434 160.159 946.524 160.159C941.491 160.159 937.869 159.115 935.66 157.028C933.45 154.942 932.345 151.382 932.345 146.349C932.345 141.807 933.45 138.369 935.66 136.037C937.869 133.582 941.491 132.354 946.524 132.354C955.976 132.354 960.702 137.019 960.702 146.349ZM1022.71 112.468C1020.25 112.468 1017.8 112.406 1015.34 112.284C1012.89 112.038 1010.49 111.67 1008.16 111.179C1004.23 112.775 1002.27 114.984 1002.27 117.808C1002.27 119.404 1002.94 120.754 1004.29 121.859C1005.64 122.963 1007.73 123.639 1010.56 123.884L1037.25 125.725C1050.39 126.708 1059.6 129.47 1064.87 134.012C1070.28 138.554 1072.98 144.937 1072.98 153.162C1072.98 158.563 1072.06 163.35 1070.21 167.524C1068.5 171.821 1065.61 175.503 1061.56 178.572C1057.63 181.641 1052.54 183.973 1046.28 185.569C1040.14 187.165 1032.65 187.963 1023.81 187.963C1016.08 187.963 1009.45 187.226 1003.93 185.753C998.402 184.28 993.799 182.255 990.116 179.677C986.556 177.099 983.917 174.03 982.198 170.47C980.603 166.91 979.805 162.982 979.805 158.686C979.805 151.197 982.996 144.814 989.38 139.536C986.924 137.94 984.838 135.853 983.119 133.275C981.523 130.574 980.725 127.383 980.725 123.7C980.725 120.017 981.83 116.58 984.04 113.388C986.372 110.074 989.871 107.373 994.535 105.287C990.607 102.831 987.477 99.517 985.145 95.3433C982.935 91.1696 981.83 85.8297 981.83 79.3236C981.83 74.1678 982.567 69.5031 984.04 65.3293C985.513 61.1556 987.845 57.5957 991.037 54.6495C994.351 51.7034 998.586 49.4324 1003.74 47.8366C1009.02 46.2407 1015.34 45.4428 1022.71 45.4428C1027.5 45.4428 1032.28 45.9338 1037.07 46.9159C1041.86 47.7752 1046.22 49.4324 1050.14 51.8875L1068.56 45.2587L1073.53 56.8592L1061.19 66.0659C1062.67 69.7486 1063.4 74.1678 1063.4 79.3236C1063.4 89.8806 1060.27 98.0439 1054.01 103.813C1047.87 109.583 1037.44 112.468 1022.71 112.468ZM1006.5 143.955C1002.08 147.638 999.875 151.566 999.875 155.739C999.875 160.404 1001.66 163.903 1005.22 166.235C1008.9 168.69 1014.91 169.918 1023.26 169.918C1028.91 169.918 1033.57 169.611 1037.25 168.997C1041.06 168.383 1044.01 167.463 1046.09 166.235C1048.18 165.13 1049.65 163.719 1050.51 162C1051.37 160.404 1051.8 158.624 1051.8 156.66C1051.8 155.064 1051.49 153.714 1050.88 152.609C1050.39 151.382 1049.47 150.338 1048.12 149.479C1046.77 148.497 1044.87 147.76 1042.41 147.269C1040.08 146.655 1037.01 146.226 1033.2 145.98L1006.5 143.955ZM1022.89 63.488C1016.26 63.488 1011.6 64.8383 1008.9 67.539C1006.2 70.1168 1004.85 74.1678 1004.85 79.6918C1004.85 82.8835 1005.28 85.5228 1006.14 87.6096C1007 89.6965 1008.16 91.3537 1009.63 92.5813C1011.23 93.8088 1013.07 94.6681 1015.16 95.1592C1017.37 95.6502 1019.76 95.8957 1022.34 95.8957C1029.58 95.8957 1034.49 94.6067 1037.07 92.0289C1039.65 89.451 1040.94 85.3386 1040.94 79.6918C1040.94 73.6768 1039.53 69.5031 1036.7 67.1707C1033.88 64.7156 1029.28 63.488 1022.89 63.488ZM1093.25 158.133V13.9558L1116.82 12.6669V158.133H1093.25Z" fill="#1FBAD6"/>
<defs>
<clipPath id="clip0_37_1572">
<rect width="302.404" height="198.95" fill="white" transform="translate(0.798004 0.5)"/>
</clipPath>
</defs>
</svg>
